{"title":"BAAHUBALI - THE BEGINNING (2015) (HINDI) Desi DVDScr {VikkyMaxx}","uid":12213581,"size":738236124,"categoryP":"video","categoryS":"movies","magnet":"?xt=urn:btih:b2617728a9daa2f5f215254dcba7a40ce87f38ea&amp;dn=BAAHUBALI+-+THE+BEGINNING+%282015%29+%28HINDI%29+Desi+DVDScr+%7BVikkyMaxx%7D&amp;tr=udp%3A%2F%2Ftracker.openbittorrent.com%3A80&amp;tr=udp%3A%2F%2Fopen.demonii.com%3A1337&amp;tr=udp%3A%2F%2Ftracker.coppersurfer.tk%3A6969&amp;tr=udp%3A%2F%2Fexodus.desync.com%3A6969","seeders":1,"leechers":0,"uploader":"shailendramaxx","files":22,"time":1439183214,"description":"VikkyMaxx Presents:-\n\nBAAHUBALI - THE BEGINNING (2015) (HINDI) Desi DVDScr {VikkyMaxx}\n\nIMDB :- http://www.imdb.com/title/tt2631186\n\nRatings :- 9.1/10  \n\nPlot :- A dispute between brothers spans across two generations.This is part 1 of a 2 part period drama. Part 1 shows the brothers Baahubali and Bhallaladeva fight for the throne to Mahishmathi Kingdom.\n\nCast :- Prabhas, Rana Daggubati, Anushka Shetty, Tamannaah Bhatia \n\nGeneral:-\n\nComplete name :BAAHUBALI - THE BEGINNING (2015) (HINDI) Desi DVDScr {VikkyMaxx}\nFormat : Matroska \nFormat version : Version 2 \nFile size : 697 MiB \nDuration : 2h 35mn \nOverall bit rate : 627 Kbps \nEncoded date : UTC 2015-08-09 16:22:45 \nWriting application : mkvmerge v7.7.0 ('Six Voices') 32bit built on Feb 28 2015 23:23:00 \nWriting library : libebml v1.3.1 + libmatroska v1.4.2 \nDURATION : 02:35:30.242000000 \nNUMBER_OF_FRAMES : 267880 \nNUMBER_OF_BYTES : 522493564 \nSource : DRC ( Thanks a Lot)\n\nVideo:-\n \nID : 1 \nFormat : AVC \nFormat/Info : Advanced Video Codec \nFormat profile : &lt;a class=&quot;__cf_email__&quot; href=&quot;/cdn-cgi/l/email-protection&quot; data-cfemail=&quot;c088a9a7a8808cf2eef1&quot;&gt;[email&amp;#160;protected]&lt;/a&gt;&lt;script data-cfhash='f9e31' type=&quot;text/javascript&quot;&gt;\n/* &lt;![CDATA[ */!function(){try{var t=&quot;currentScript&quot;in document?document.currentScript:function(){for(var t=document.getElementsByTagName(&quot;script&quot;),e=t.length;e--;)if(t[e].getAttribute(&quot;data-cfhash&quot;))return t[e]}();if(t&amp;&amp;t.previousSibling){var e,r,n,i,c=t.previousSibling,a=c.getAttribute(&quot;data-cfemail&quot;);if(a){for(e=&quot;&quot;,r=parseInt(a.substr(0,2),16),n=2;a.length-n;n+=2)i=parseInt(a.substr(n,2),16)^r,e+=String.fromCharCode(i);e=document.createTextNode(e),c.parentNode.replaceChild(e,c)}t.parentNode.removeChild(t);}}catch(u){}}()/* ]]&gt; */&lt;/script&gt; \nFormat settings, CABAC : Yes \nFormat settings, ReFrames : 4 frames \nCodec ID : V_MPEG4/ISO/AVC \nDuration : 2h 35mn \nBit rate : 166 Kbps \nNominal bit rate : 177 Kbps \nWidth : 640 pixels \nHeight : 272 pixels \nDisplay aspect ratio : 2.35:1 \nFrame rate mode : Constant \nFrame rate : 23.976 fps \nColor space : YUV \nChroma subsampling : 4:2:0 \nBit depth : 8 bits \nScan type : Progressive \nBits/(Pixel*Frame) : 0.040 \nStream size : 185 MiB (27%) \nWriting library : x264 core 146 r2538 121396c \nEncoding settings : cabac=1 / ref=3 / deblock=1:0:0\nDefault : Yes \nForced : No \n\nAudio:-\n \nID : 2 \nFormat : AC-3 \nFormat/Info : Audio Coding 3 \nMode extension : CM (complete main) \nFormat settings, Endianness : Big \nCodec ID : A_AC3 \nDuration : 2h 35mn \nBit rate mode : Constant \nBit rate : 448 Kbps \nChannel(s) : 6 channels \nChannel positions : Front: L C R, Side: L R, LFE \nSampling rate : 44.1 KHz \nBit depth : 16 bits \nCompression mode : Lossy \nStream size : 498 MiB (71%) \nDefault : Yes \nForced : No \nLanguage : Hindi\n\n\nSCREENS:-\n\n &lt;a href=&quot;\nhttp://i.imgur.com/cE2G21j.png&quot; rel=&quot;nofollow&quot; target=&quot;_NEW&quot;&gt;\nhttp://i.imgur.com/cE2G21j.png&lt;/a&gt;\n &lt;a href=&quot;\nhttp://i.imgur.com/3mGIfw8.png&quot; rel=&quot;nofollow&quot; target=&quot;_NEW&quot;&gt;\nhttp://i.imgur.com/3mGIfw8.png&lt;/a&gt;\n &lt;a href=&quot;\nhttp://i.imgur.com/uv8hK62.png&quot; rel=&quot;nofollow&quot; target=&quot;_NEW&quot;&gt;\nhttp://i.imgur.com/uv8hK62.png&lt;/a&gt;\n &lt;a href=&quot;\nhttp://i.imgur.com/hGj1gFf.png&quot; rel=&quot;nofollow&quot; target=&quot;_NEW&quot;&gt;\nhttp://i.imgur.com/hGj1gFf.png&lt;/a&gt;\n &lt;a href=&quot;\nhttp://i.imgur.com/gqdrA3V.png&quot; rel=&quot;nofollow&quot; target=&quot;_NEW&quot;&gt;\nhttp://i.imgur.com/gqdrA3V.png&lt;/a&gt;\n &lt;a href=&quot;\nhttp://i.imgur.com/mCSTpQG.png&quot; rel=&quot;nofollow&quot; target=&quot;_NEW&quot;&gt;\nhttp://i.imgur.com/mCSTpQG.png&lt;/a&gt;\n &lt;a href=&quot;\nhttp://i.imgur.com/ZTbixI2.png&quot; rel=&quot;nofollow&quot; target=&quot;_NEW&quot;&gt;\nhttp://i.imgur.com/ZTbixI2.png&lt;/a&gt;\n &lt;a href=&quot;\nhttp://i.imgur.com/yRClfaH.png&quot; rel=&quot;nofollow&quot; target=&quot;_NEW&quot;&gt;\nhttp://i.imgur.com/yRClfaH.png&lt;/a&gt;\n &lt;a href=&quot;\nhttp://i.imgur.com/F4xZvHG.png&quot; rel=&quot;nofollow&quot; target=&quot;_NEW&quot;&gt;\nhttp://i.imgur.com/F4xZvHG.png&lt;/a&gt;\n &lt;a href=&quot;\nhttp://i.imgur.com/xulA9p1.png&quot; rel=&quot;nofollow&quot; target=&quot;_NEW&quot;&gt;\nhttp://i.imgur.com/xulA9p1.png&lt;/a&gt;\n &lt;a href=&quot;\nhttp://i.imgur.com/lzMC9wz.png&quot; rel=&quot;nofollow&quot; target=&quot;_NEW&quot;&gt;\nhttp://i.imgur.com/lzMC9wz.png&lt;/a&gt;\n &lt;a href=&quot;\nhttp://i.imgur.com/7c4BeyG.png&quot; rel=&quot;nofollow&quot; target=&quot;_NEW&quot;&gt;\nhttp://i.imgur.com/7c4BeyG.png&lt;/a&gt;\n\n\n\n\n                           \n            ********** PLEASE SEED AS LONG AS YOU CAN AFTER DOWNLOAD **********\n                       \n                          ***** THANK YOU REGARDS - VikkyMaxx *****","torrent":{"xt":"urn:btih:b2617728a9daa2f5f215254dcba7a40ce87f38ea","amp;dn":"BAAHUBALI+-+THE+BEGINNING+%282015%29+%28HINDI%29+Desi+DVDScr+%7BVikkyMaxx%7D","amp;tr":["udp%3A%2F%2Ftracker.openbittorrent.com%3A80","udp%3A%2F%2Fopen.demonii.com%3A1337","udp%3A%2F%2Ftracker.coppersurfer.tk%3A6969","udp%3A%2F%2Fexodus.desync.com%3A6969"],"infoHash":"b2617728a9daa2f5f215254dcba7a40ce87f38ea","infoHashBuffer":{"type":"Buffer","data":[178,97,119,40,169,218,162,245,242,21,37,77,203,167,164,12,232,127,56,234]},"announce":[],"urlList":[]}}